<?xml version="1.0" standalone="no"?>
<!DOCTYPE svg PUBLIC "-//W3C//DTD SVG 20010904//EN"
 "http://www.w3.org/TR/2001/REC-SVG-20010904/DTD/svg10.dtd">
<svg version="1.0" xmlns="http://www.w3.org/2000/svg"
 width="266.000000pt" height="134.000000pt" viewBox="0 0 266.000000 134.000000"
 preserveAspectRatio="xMidYMid meet">

<g transform="translate(0.000000,134.000000) scale(0.100000,-0.100000)"
fill="#000000" stroke="none">
<path d="M1337 1145 c-52 -18 -81 -47 -109 -108 -22 -51 -23 -61 -26 -408 -3
-320 -2 -358 13 -373 12 -12 21 -13 36 -6 18 10 19 24 19 280 l0 269 68 3 c64
3 67 4 67 28 0 24 -3 25 -67 28 l-68 3 0 52 c1 98 36 159 101 179 44 13 55 31
33 53 -18 18 -18 18 -67 0z"/>
<path d="M1657 1153 c-4 -3 -7 -208 -7 -454 0 -469 0 -469 43 -447 10 5 32 5
55 -1 42 -12 87 -3 129 24 47 31 53 66 53 302 0 254 -5 273 -80 311 -43 22
-79 23 -126 5 -12 -4 -14 15 -14 119 0 83 -4 128 -12 136 -13 13 -31 16 -41 5z
m191 -339 c21 -24 22 -31 22 -237 0 -230 -4 -248 -56 -267 -29 -11 -81 5 -94
30 -15 29 -13 452 3 472 35 44 86 45 125 2z"/>
<path d="M651 922 c-14 -27 8 -55 40 -50 19 2 24 9 24 33 0 25 -4 31 -27 33
-18 2 -30 -3 -37 -16z"/>
<path d="M1490 920 c-11 -11 -20 -24 -20 -30 0 -13 37 -50 50 -50 13 0 50 37
50 50 0 6 -9 19 -20 30 -11 11 -24 20 -30 20 -5 0 -19 -9 -30 -20z"/>
<path d="M2034 926 c-12 -31 0 -51 30 -51 36 0 56 26 37 49 -17 20 -60 21 -67
2z"/>
<path d="M910 892 c-19 -9 -45 -32 -57 -51 -23 -33 -23 -40 -23 -306 0 -230 2
-274 15 -285 12 -10 18 -10 30 0 13 10 15 53 15 271 0 279 3 300 51 320 34 14
84 -2 99 -32 6 -10 10 -132 10 -283 0 -245 1 -266 18 -275 41 -22 43 -8 40
292 l-3 285 -25 27 c-28 31 -78 55 -112 55 -13 0 -39 -8 -58 -18z"/>
<path d="M667 774 c-4 -4 -7 -128 -7 -275 0 -214 3 -268 13 -272 35 -13 37 5
35 279 -3 233 -5 269 -18 272 -9 1 -19 0 -23 -4z"/>
<path d="M1502 768 c-9 -9 -12 -79 -12 -270 0 -238 1 -258 18 -267 40 -22 42
-7 40 275 -3 231 -5 269 -18 272 -9 1 -21 -3 -28 -10z"/>
<path d="M2053 773 c-20 -7 -18 -526 1 -542 11 -9 18 -8 30 4 14 14 16 50 16
269 0 271 -3 287 -47 269z"/>
</g>
</svg>
